<?xml version="1.0" standalone="no"?>
<!DOCTYPE svg PUBLIC "-//W3C//DTD SVG 20010904//EN"
 "http://www.w3.org/TR/2001/REC-SVG-20010904/DTD/svg10.dtd">
<svg version="1.0" xmlns="http://www.w3.org/2000/svg"
 width="626.000000pt" height="626.000000pt" viewBox="0 0 626.000000 626.000000"
 preserveAspectRatio="xMidYMid meet">
<metadata>
Created by potrace 1.11, written by Peter Selinger 2001-2013
</metadata>
<g transform="translate(0.000000,626.000000) scale(0.100000,-0.100000)"
fill="#000000" stroke="none">
<path d="M0 4755 l0 -1505 118 6 c64 4 119 11 120 16 2 4 54 8 115 9 62 0 135
4 162 9 l50 7 -42 2 c-84 2 -41 19 60 24 137 6 289 24 362 42 33 8 96 17 140
19 44 3 106 10 138 17 46 10 57 16 57 32 0 13 5 17 16 13 38 -15 64 -18 64 -7
0 6 18 14 40 17 22 4 40 10 40 14 0 4 44 15 98 25 53 10 105 25 115 34 13 11
20 12 25 4 5 -8 13 -9 22 -3 8 6 34 10 56 10 24 0 47 6 53 14 7 8 30 18 53 21
22 4 47 16 56 26 11 13 30 19 59 19 24 0 43 4 43 9 0 11 57 26 83 22 10 -1 24
2 30 7 14 11 60 24 102 28 49 5 118 20 148 33 16 6 45 11 66 11 20 0 46 6 56
14 10 7 27 11 37 8 12 -3 18 1 18 12 0 18 40 31 73 22 16 -4 27 1 37 14 8 11
22 20 32 20 10 0 18 5 18 10 0 6 5 10 10 10 6 0 21 9 33 20 31 30 63 35 92 16
18 -12 25 -13 25 -4 1 16 63 48 93 48 22 0 61 19 42 20 -19 1 29 30 49 30 11
0 28 -7 38 -17 17 -15 18 -15 18 10 0 23 4 27 33 28 17 1 39 2 47 3 26 2 99
40 100 52 0 6 15 17 33 24 17 6 40 16 49 21 10 5 27 9 38 9 11 0 20 5 20 10 0
6 18 10 40 10 22 0 40 4 40 8 0 13 67 31 90 25 12 -3 29 2 41 13 17 16 22 16
29 4 8 -12 13 -13 30 -2 11 7 53 12 99 12 44 0 83 5 86 10 9 14 25 12 25 -3 0
-11 27 -14 120 -14 66 0 120 4 120 9 0 4 19 7 43 7 l42 -2 -40 -6 -40 -6 25
-14 c27 -15 44 -18 155 -27 39 -3 74 -10 80 -15 5 -5 25 -9 45 -9 19 0 59 -7
89 -15 31 -8 73 -11 101 -8 35 4 54 1 73 -12 32 -21 67 -78 67 -111 0 -20 5
-24 29 -24 41 0 131 -22 131 -32 0 -4 -9 -8 -19 -8 -11 0 -23 -4 -26 -10 -3
-5 12 -9 38 -8 54 1 95 -11 77 -22 -9 -6 -4 -13 18 -24 18 -9 39 -30 48 -48
11 -21 18 -27 24 -19 5 9 9 8 14 -5 4 -11 2 -20 -3 -22 -14 -5 -14 -62 -1 -62
6 0 10 14 10 31 0 24 3 30 16 25 9 -3 21 -6 29 -6 8 0 13 -14 13 -40 1 -46 20
-70 56 -70 19 0 26 5 26 20 0 31 27 24 68 -19 24 -25 36 -46 34 -60 -3 -17 2
-21 27 -21 24 0 31 -4 31 -20 0 -24 28 -40 73 -40 28 0 36 -4 41 -24 3 -13 22
-34 41 -46 19 -12 33 -26 29 -31 -3 -5 9 -24 28 -41 18 -17 32 -38 30 -48 -2
-11 11 -23 40 -36 23 -10 46 -18 50 -17 5 2 8 -1 8 -6 0 -5 -6 -11 -12 -14 -8
-2 4 -20 30 -45 23 -22 42 -50 42 -61 0 -11 5 -23 10 -26 17 -10 11 -25 -10
-25 -22 0 -26 -20 -8 -38 15 -15 88 -16 88 -1 0 6 6 17 14 24 11 11 16 8 30
-21 9 -19 16 -37 16 -39 0 -3 -22 -5 -50 -5 -52 0 -61 -8 -33 -31 13 -11 17
-11 20 -1 8 23 33 13 33 -14 0 -14 7 -32 15 -40 9 -10 15 -34 15 -65 0 -46 12
-65 24 -36 3 8 9 6 20 -7 22 -27 20 -46 -4 -46 -11 0 -20 -4 -20 -10 0 -5 10
-10 23 -10 26 0 43 -18 77 -83 19 -36 22 -49 12 -55 -7 -5 -14 -40 -17 -91 -2
-46 -7 -86 -10 -89 -3 -3 -5 -24 -5 -47 0 -46 -19 -95 -37 -95 -6 0 -15 -9
-18 -20 -3 -11 -11 -20 -16 -20 -5 0 -9 -12 -9 -28 0 -18 -7 -30 -22 -37 -12
-6 -26 -19 -32 -29 -17 -29 -97 -106 -111 -106 -7 0 -20 -18 -30 -40 -21 -46
-45 -53 -45 -13 l0 26 -25 -23 c-14 -13 -25 -29 -25 -36 0 -7 -10 -19 -22 -25
-34 -18 -42 -29 -63 -84 -15 -41 -20 -46 -26 -30 -6 16 -8 16 -8 4 -1 -9 -7
-19 -15 -22 -7 -3 -16 -19 -19 -37 -7 -33 -28 -60 -46 -60 -6 0 -11 -4 -11
-10 0 -5 5 -10 10 -10 18 0 10 -16 -14 -29 -13 -7 -29 -25 -36 -39 -8 -19 -14
-22 -19 -13 -6 10 -10 10 -16 2 -4 -7 -1 -18 5 -26 10 -12 9 -15 -9 -15 -12 0
-24 -7 -27 -15 -3 -8 -15 -17 -25 -20 -33 -11 -59 -46 -53 -71 4 -14 -1 -26
-13 -35 -10 -8 -27 -32 -38 -54 -25 -50 -40 -62 -87 -70 -42 -7 -42 -8 -52
-48 -5 -21 -3 -27 10 -27 13 0 14 -3 4 -14 -6 -8 -18 -12 -25 -9 -9 3 -22 -8
-34 -29 -26 -42 -42 -65 -62 -89 -15 -18 -27 -43 -43 -92 -3 -10 -10 -16 -15
-13 -5 4 -12 -7 -16 -24 -5 -25 -11 -30 -36 -30 -21 0 -29 -5 -29 -17 0 -10
-7 -27 -15 -37 -8 -11 -11 -22 -6 -25 17 -11 0 -61 -20 -61 -11 0 -19 -6 -19
-14 0 -8 -3 -16 -8 -18 -4 -1 -15 -16 -24 -33 -9 -16 -25 -32 -35 -34 -22 -4
-33 -19 -33 -47 0 -24 -61 -94 -83 -94 -9 0 -18 -8 -21 -18 -7 -20 -114 -132
-126 -132 -5 0 -28 -29 -52 -65 -25 -38 -56 -71 -74 -80 -19 -9 -34 -25 -38
-40 -4 -16 -21 -32 -47 -45 -22 -12 -48 -29 -58 -38 -10 -9 -36 -27 -57 -38
-23 -13 -40 -31 -42 -43 l-3 -21 1070 0 1071 0 0 3130 0 3130 -3130 0 -3130 0
0 -1505z m4910 -811 c0 -2 -7 -4 -15 -4 -8 0 -15 4 -15 10 0 5 7 7 15 4 8 -4
15 -8 15 -10z m-4527 -641 c-13 -2 -33 -2 -45 0 -13 2 -3 4 22 4 25 0 35 -2
23 -4z m5614 -395 c-3 -7 -5 -2 -5 12 0 14 2 19 5 13 2 -7 2 -19 0 -25z"/>
<path d="M3778 4153 c12 -2 32 -2 45 0 12 2 2 4 -23 4 -25 0 -35 -2 -22 -4z"/>
<path d="M4321 4096 c10 -9 79 -14 79 -5 0 5 -19 9 -42 9 -23 0 -39 -2 -37 -4z"/>
<path d="M4605 4010 c3 -5 13 -10 21 -10 8 0 14 5 14 10 0 6 -9 10 -21 10 -11
0 -17 -4 -14 -10z"/>
<path d="M4728 3933 c6 -2 18 -2 25 0 6 3 1 5 -13 5 -14 0 -19 -2 -12 -5z"/>
<path d="M4780 3911 c0 -6 5 -13 10 -16 6 -3 10 1 10 9 0 9 -4 16 -10 16 -5 0
-10 -4 -10 -9z"/>
<path d="M4885 3850 l69 -70 -39 -1 -40 -1 48 -10 c27 -5 60 -16 73 -25 l24
-15 0 41 c0 59 -33 91 -95 91 -43 0 -45 1 -45 30 0 27 -3 30 -32 30 l-32 0 69
-70z m109 -56 c3 -9 -1 -14 -14 -14 -13 0 -20 7 -20 20 0 22 25 18 34 -6z"/>
<path d="M6020 2651 c0 -5 14 -11 30 -13 20 -3 30 0 30 9 0 8 -12 13 -30 13
-16 0 -30 -4 -30 -9z"/>
<path d="M6022 2323 c2 -10 10 -18 18 -18 8 0 16 8 18 18 2 12 -3 17 -18 17
-15 0 -20 -5 -18 -17z"/>
<path d="M5991 2274 c-14 -31 -14 -44 -1 -44 6 0 10 7 10 15 0 8 5 15 10 15
12 0 13 27 1 34 -4 3 -13 -6 -20 -20z"/>
</g>
</svg>
